<?xml version="1.0" encoding="utf-8"?>
<svg
        viewBox="0 0 512 512"
        width="800"
        height="800"
        stroke="current"
        fill="current"
        xmlns="http://www.w3.org/2000/svg">
  <g style="transform-origin: 235.706px 253.681px;">
    <path class="st0" d="M149.192,103.525c15.995,0,28.964-12.97,28.964-28.973V28.964C178.157,12.97,165.187,0,149.192,0&#10;&#9;&#9;C133.19,0,120.22,12.97,120.22,28.964v45.588C120.22,90.556,133.19,103.525,149.192,103.525z"/>
    <path class="st0" d="M362.815,103.525c15.994,0,28.964-12.97,28.964-28.973V28.964C391.78,12.97,378.809,0,362.815,0&#10;&#9;&#9;c-16.004,0-28.973,12.97-28.973,28.964v45.588C333.843,90.556,346.812,103.525,362.815,103.525z"/>
    <path class="st0" d="M435.164,41.287h-17.925v33.265c0,30.018-24.415,54.432-54.423,54.432c-30.017,0-54.432-24.414-54.432-54.432&#10;&#9;&#9;V41.287H203.615v33.265c0,30.018-24.414,54.432-54.423,54.432c-30.017,0-54.431-24.414-54.431-54.432V41.287H76.836&#10;&#9;&#9;c-38.528,0-69.762,31.235-69.762,69.763v331.187C7.073,480.765,38.308,512,76.836,512h358.328&#10;&#9;&#9;c38.528,0,69.763-31.235,69.763-69.763V111.05C504.927,72.522,473.691,41.287,435.164,41.287z M450.023,429.988&#10;&#9;&#9;c0,17.826-14.503,32.329-32.329,32.329H94.306c-17.826,0-32.329-14.503-32.329-32.329V170.876h388.047V429.988z"/>
    <path class="st0" d="M 221.837 279.424 C 222.625 279.424 223.437 279.151 224.299 278.596 L 245.315 263.836 L 245.315 382.967 C 245.315 385.495 247.147 387.318 249.674 387.318 L 270.758 387.318 C 273.269 387.318 275.092 385.495 275.092 382.967 L 275.092 231.78 C 275.092 229.252 273.269 227.429 270.758 227.429 L 251.274 227.429 C 249.086 227.429 247.47 227.968 245.937 229.194 L 220.909 247.344 C 219.276 248.636 218.522 250.17 218.522 252.159 L 218.522 275.529 C 218.522 276.565 218.771 277.435 219.26 278.114 C 219.856 278.943 220.801 279.424 221.837 279.424 Z"/>
  </g>
</svg>